<mxfile host="app.diagrams.net" agent="Mozilla/5.0 (Windows NT 10.0; Win64; x64) AppleWebKit/537.36 (KHTML, like Gecko) Chrome/128.0.0.0 Safari/537.36 Edg/128.0.0.0" version="24.7.14">
  <diagram name="Página-1" id="t8ws5RrRNgcCuZQSS5f2">
    <mxGraphModel dx="1537" dy="1292" grid="1" gridSize="10" guides="1" tooltips="1" connect="1" arrows="1" fold="1" page="1" pageScale="1" pageWidth="827" pageHeight="1169" math="0" shadow="0">
      <root>
        <mxCell id="0" />
        <mxCell id="1" parent="0" />
        <mxCell id="PZywYdq4YvhuVGfifWrI-1" value="" style="shape=umlLifeline;perimeter=lifelinePerimeter;whiteSpace=wrap;html=1;container=1;dropTarget=0;collapsible=0;recursiveResize=0;outlineConnect=0;portConstraint=eastwest;newEdgeStyle={&quot;curved&quot;:0,&quot;rounded&quot;:0};participant=umlActor;" vertex="1" parent="1">
          <mxGeometry x="71" y="130" width="20" height="800" as="geometry" />
        </mxCell>
        <mxCell id="PZywYdq4YvhuVGfifWrI-2" value="" style="shape=umlLifeline;perimeter=lifelinePerimeter;whiteSpace=wrap;html=1;container=1;dropTarget=0;collapsible=0;recursiveResize=0;outlineConnect=0;portConstraint=eastwest;newEdgeStyle={&quot;curved&quot;:0,&quot;rounded&quot;:0};participant=umlBoundary;" vertex="1" parent="1">
          <mxGeometry x="273" y="130" width="50" height="800" as="geometry" />
        </mxCell>
        <mxCell id="PZywYdq4YvhuVGfifWrI-7" value="" style="html=1;points=[[0,0,0,0,5],[0,1,0,0,-5],[1,0,0,0,5],[1,1,0,0,-5]];perimeter=orthogonalPerimeter;outlineConnect=0;targetShapes=umlLifeline;portConstraint=eastwest;newEdgeStyle={&quot;curved&quot;:0,&quot;rounded&quot;:0};" vertex="1" parent="PZywYdq4YvhuVGfifWrI-2">
          <mxGeometry x="20" y="70" width="10" height="710" as="geometry" />
        </mxCell>
        <mxCell id="PZywYdq4YvhuVGfifWrI-3" value="" style="shape=umlLifeline;perimeter=lifelinePerimeter;whiteSpace=wrap;html=1;container=1;dropTarget=0;collapsible=0;recursiveResize=0;outlineConnect=0;portConstraint=eastwest;newEdgeStyle={&quot;curved&quot;:0,&quot;rounded&quot;:0};participant=umlControl;" vertex="1" parent="1">
          <mxGeometry x="434" y="130" width="40" height="800" as="geometry" />
        </mxCell>
        <mxCell id="PZywYdq4YvhuVGfifWrI-13" value="" style="html=1;points=[[0,0,0,0,5],[0,1,0,0,-5],[1,0,0,0,5],[1,1,0,0,-5]];perimeter=orthogonalPerimeter;outlineConnect=0;targetShapes=umlLifeline;portConstraint=eastwest;newEdgeStyle={&quot;curved&quot;:0,&quot;rounded&quot;:0};" vertex="1" parent="PZywYdq4YvhuVGfifWrI-3">
          <mxGeometry x="15" y="161" width="10" height="44" as="geometry" />
        </mxCell>
        <mxCell id="PZywYdq4YvhuVGfifWrI-4" value="" style="shape=umlLifeline;perimeter=lifelinePerimeter;whiteSpace=wrap;html=1;container=1;dropTarget=0;collapsible=0;recursiveResize=0;outlineConnect=0;portConstraint=eastwest;newEdgeStyle={&quot;curved&quot;:0,&quot;rounded&quot;:0};participant=umlEntity;" vertex="1" parent="1">
          <mxGeometry x="1061" y="130" width="40" height="800" as="geometry" />
        </mxCell>
        <mxCell id="PZywYdq4YvhuVGfifWrI-14" value="" style="html=1;points=[[0,0,0,0,5],[0,1,0,0,-5],[1,0,0,0,5],[1,1,0,0,-5]];perimeter=orthogonalPerimeter;outlineConnect=0;targetShapes=umlLifeline;portConstraint=eastwest;newEdgeStyle={&quot;curved&quot;:0,&quot;rounded&quot;:0};" vertex="1" parent="PZywYdq4YvhuVGfifWrI-4">
          <mxGeometry x="15" y="470" width="10" height="51" as="geometry" />
        </mxCell>
        <mxCell id="PZywYdq4YvhuVGfifWrI-6" value="Loop" style="shape=umlFrame;whiteSpace=wrap;html=1;pointerEvents=0;" vertex="1" parent="1">
          <mxGeometry x="13" y="670" width="1417" height="190" as="geometry" />
        </mxCell>
        <mxCell id="PZywYdq4YvhuVGfifWrI-8" value="Selecciona cargar relevamiento" style="html=1;verticalAlign=bottom;endArrow=block;curved=0;rounded=0;" edge="1" parent="1" source="PZywYdq4YvhuVGfifWrI-1">
          <mxGeometry x="0.0034" y="5" relative="1" as="geometry">
            <mxPoint x="182.59090909090912" y="210" as="sourcePoint" />
            <mxPoint x="292.9999999999999" y="210" as="targetPoint" />
            <mxPoint as="offset" />
          </mxGeometry>
        </mxCell>
        <mxCell id="PZywYdq4YvhuVGfifWrI-10" value="Ingresa sucursal" style="html=1;verticalAlign=bottom;endArrow=block;curved=0;rounded=0;" edge="1" parent="1">
          <mxGeometry relative="1" as="geometry">
            <mxPoint x="80.59090909090901" y="273" as="sourcePoint" />
            <mxPoint x="293" y="272.9999999999999" as="targetPoint" />
          </mxGeometry>
        </mxCell>
        <mxCell id="PZywYdq4YvhuVGfifWrI-11" value="Solicita nro de sucursal" style="html=1;verticalAlign=bottom;endArrow=block;curved=0;rounded=0;entryX=0.356;entryY=0.247;entryDx=0;entryDy=0;entryPerimeter=0;" edge="1" parent="1">
          <mxGeometry relative="1" as="geometry">
            <mxPoint x="292.9999999999999" y="242.48000000000002" as="sourcePoint" />
            <mxPoint x="78.12" y="242.48000000000002" as="targetPoint" />
          </mxGeometry>
        </mxCell>
        <mxCell id="PZywYdq4YvhuVGfifWrI-12" value="Valida sucursal" style="html=1;verticalAlign=bottom;endArrow=block;curved=0;rounded=0;" edge="1" parent="1">
          <mxGeometry relative="1" as="geometry">
            <mxPoint x="303" y="297.0000000000001" as="sourcePoint" />
            <mxPoint x="449" y="297" as="targetPoint" />
          </mxGeometry>
        </mxCell>
        <mxCell id="PZywYdq4YvhuVGfifWrI-15" value="Obtiene competidores" style="html=1;verticalAlign=bottom;endArrow=block;curved=0;rounded=0;" edge="1" parent="1">
          <mxGeometry relative="1" as="geometry">
            <mxPoint x="302.9999999999999" y="367" as="sourcePoint" />
            <mxPoint x="589" y="367.0000000000001" as="targetPoint" />
          </mxGeometry>
        </mxCell>
        <mxCell id="PZywYdq4YvhuVGfifWrI-17" value="Repetir por todos los SKU asociados" style="text;html=1;align=left;verticalAlign=middle;resizable=0;points=[];autosize=1;strokeColor=none;fillColor=none;" vertex="1" parent="1">
          <mxGeometry x="91" y="670" width="220" height="30" as="geometry" />
        </mxCell>
        <mxCell id="PZywYdq4YvhuVGfifWrI-18" value="Menu&amp;nbsp;&lt;div&gt;Relevamiento&amp;nbsp;&lt;div&gt;Nuevo&lt;/div&gt;&lt;/div&gt;" style="text;html=1;align=center;verticalAlign=middle;resizable=0;points=[];autosize=1;strokeColor=none;fillColor=none;" vertex="1" parent="1">
          <mxGeometry x="248" y="70" width="100" height="60" as="geometry" />
        </mxCell>
        <mxCell id="PZywYdq4YvhuVGfifWrI-19" value="Sucursales" style="text;html=1;align=center;verticalAlign=middle;resizable=0;points=[];autosize=1;strokeColor=none;fillColor=none;" vertex="1" parent="1">
          <mxGeometry x="414" y="85" width="80" height="30" as="geometry" />
        </mxCell>
        <mxCell id="PZywYdq4YvhuVGfifWrI-20" value="" style="shape=umlLifeline;perimeter=lifelinePerimeter;whiteSpace=wrap;html=1;container=1;dropTarget=0;collapsible=0;recursiveResize=0;outlineConnect=0;portConstraint=eastwest;newEdgeStyle={&quot;curved&quot;:0,&quot;rounded&quot;:0};participant=umlControl;" vertex="1" parent="1">
          <mxGeometry x="573" y="130" width="40" height="800" as="geometry" />
        </mxCell>
        <mxCell id="PZywYdq4YvhuVGfifWrI-21" value="" style="html=1;points=[[0,0,0,0,5],[0,1,0,0,-5],[1,0,0,0,5],[1,1,0,0,-5]];perimeter=orthogonalPerimeter;outlineConnect=0;targetShapes=umlLifeline;portConstraint=eastwest;newEdgeStyle={&quot;curved&quot;:0,&quot;rounded&quot;:0};" vertex="1" parent="PZywYdq4YvhuVGfifWrI-20">
          <mxGeometry x="15" y="228" width="10" height="34" as="geometry" />
        </mxCell>
        <mxCell id="PZywYdq4YvhuVGfifWrI-22" value="Competidores" style="text;html=1;align=center;verticalAlign=middle;resizable=0;points=[];autosize=1;strokeColor=none;fillColor=none;" vertex="1" parent="1">
          <mxGeometry x="543" y="85" width="100" height="30" as="geometry" />
        </mxCell>
        <mxCell id="PZywYdq4YvhuVGfifWrI-23" value="Obtiene artículos de marca" style="html=1;verticalAlign=bottom;endArrow=block;curved=0;rounded=0;" edge="1" parent="1">
          <mxGeometry relative="1" as="geometry">
            <mxPoint x="303" y="548.5500000000001" as="sourcePoint" />
            <mxPoint x="738" y="548.5500000000002" as="targetPoint" />
          </mxGeometry>
        </mxCell>
        <mxCell id="PZywYdq4YvhuVGfifWrI-24" value="Informa competidores" style="html=1;verticalAlign=bottom;endArrow=open;dashed=1;endSize=8;curved=0;rounded=0;" edge="1" parent="1">
          <mxGeometry relative="1" as="geometry">
            <mxPoint x="302.9999999999999" y="389" as="targetPoint" />
            <mxPoint x="588" y="389" as="sourcePoint" />
          </mxGeometry>
        </mxCell>
        <mxCell id="PZywYdq4YvhuVGfifWrI-26" value="Muestra competidores y solicita elegir&amp;nbsp;" style="html=1;verticalAlign=bottom;endArrow=block;curved=0;rounded=0;" edge="1" parent="1">
          <mxGeometry relative="1" as="geometry">
            <mxPoint x="292.9999999999999" y="426" as="sourcePoint" />
            <mxPoint x="80.59090909090901" y="426" as="targetPoint" />
          </mxGeometry>
        </mxCell>
        <mxCell id="PZywYdq4YvhuVGfifWrI-27" value="Confirma sucursal" style="html=1;verticalAlign=bottom;endArrow=open;dashed=1;endSize=8;curved=0;rounded=0;" edge="1" parent="1">
          <mxGeometry relative="1" as="geometry">
            <mxPoint x="302.9999999999999" y="330.5500000000002" as="targetPoint" />
            <mxPoint x="452" y="330.55" as="sourcePoint" />
          </mxGeometry>
        </mxCell>
        <mxCell id="PZywYdq4YvhuVGfifWrI-28" value="Ingresa competidor" style="html=1;verticalAlign=bottom;endArrow=block;curved=0;rounded=0;" edge="1" parent="1">
          <mxGeometry relative="1" as="geometry">
            <mxPoint x="80.59090909090901" y="454" as="sourcePoint" />
            <mxPoint x="295" y="453.9999999999999" as="targetPoint" />
          </mxGeometry>
        </mxCell>
        <mxCell id="PZywYdq4YvhuVGfifWrI-29" value="Valida competidor" style="html=1;verticalAlign=bottom;endArrow=block;curved=0;rounded=0;" edge="1" parent="1">
          <mxGeometry relative="1" as="geometry">
            <mxPoint x="302.9999999999999" y="478" as="sourcePoint" />
            <mxPoint x="589" y="478.0000000000001" as="targetPoint" />
          </mxGeometry>
        </mxCell>
        <mxCell id="PZywYdq4YvhuVGfifWrI-30" value="" style="html=1;points=[[0,0,0,0,5],[0,1,0,0,-5],[1,0,0,0,5],[1,1,0,0,-5]];perimeter=orthogonalPerimeter;outlineConnect=0;targetShapes=umlLifeline;portConstraint=eastwest;newEdgeStyle={&quot;curved&quot;:0,&quot;rounded&quot;:0};" vertex="1" parent="1">
          <mxGeometry x="588" y="469" width="10" height="34" as="geometry" />
        </mxCell>
        <mxCell id="PZywYdq4YvhuVGfifWrI-31" value="Confirma competidor" style="html=1;verticalAlign=bottom;endArrow=open;dashed=1;endSize=8;curved=0;rounded=0;" edge="1" parent="1">
          <mxGeometry relative="1" as="geometry">
            <mxPoint x="303" y="500" as="targetPoint" />
            <mxPoint x="588" y="500" as="sourcePoint" />
          </mxGeometry>
        </mxCell>
        <mxCell id="PZywYdq4YvhuVGfifWrI-32" value="" style="shape=umlLifeline;perimeter=lifelinePerimeter;whiteSpace=wrap;html=1;container=1;dropTarget=0;collapsible=0;recursiveResize=0;outlineConnect=0;portConstraint=eastwest;newEdgeStyle={&quot;curved&quot;:0,&quot;rounded&quot;:0};participant=umlControl;" vertex="1" parent="1">
          <mxGeometry x="723" y="130" width="40" height="800" as="geometry" />
        </mxCell>
        <mxCell id="PZywYdq4YvhuVGfifWrI-33" value="" style="html=1;points=[[0,0,0,0,5],[0,1,0,0,-5],[1,0,0,0,5],[1,1,0,0,-5]];perimeter=orthogonalPerimeter;outlineConnect=0;targetShapes=umlLifeline;portConstraint=eastwest;newEdgeStyle={&quot;curved&quot;:0,&quot;rounded&quot;:0};" vertex="1" parent="PZywYdq4YvhuVGfifWrI-32">
          <mxGeometry x="15" y="413" width="10" height="34" as="geometry" />
        </mxCell>
        <mxCell id="PZywYdq4YvhuVGfifWrI-34" value="Articulos" style="text;html=1;align=center;verticalAlign=middle;resizable=0;points=[];autosize=1;strokeColor=none;fillColor=none;" vertex="1" parent="1">
          <mxGeometry x="708" y="85" width="70" height="30" as="geometry" />
        </mxCell>
        <mxCell id="PZywYdq4YvhuVGfifWrI-35" value="Informa articulos" style="html=1;verticalAlign=bottom;endArrow=open;dashed=1;endSize=8;curved=0;rounded=0;exitX=0;exitY=1;exitDx=0;exitDy=-5;exitPerimeter=0;" edge="1" parent="1" source="PZywYdq4YvhuVGfifWrI-33" target="PZywYdq4YvhuVGfifWrI-7">
          <mxGeometry relative="1" as="geometry">
            <mxPoint x="323" y="583.3199999999999" as="targetPoint" />
            <mxPoint x="608" y="583.3199999999999" as="sourcePoint" />
          </mxGeometry>
        </mxCell>
        <mxCell id="PZywYdq4YvhuVGfifWrI-36" value="" style="shape=umlLifeline;perimeter=lifelinePerimeter;whiteSpace=wrap;html=1;container=1;dropTarget=0;collapsible=0;recursiveResize=0;outlineConnect=0;portConstraint=eastwest;newEdgeStyle={&quot;curved&quot;:0,&quot;rounded&quot;:0};participant=umlControl;" vertex="1" parent="1">
          <mxGeometry x="883" y="130" width="40" height="800" as="geometry" />
        </mxCell>
        <mxCell id="PZywYdq4YvhuVGfifWrI-37" value="" style="html=1;points=[[0,0,0,0,5],[0,1,0,0,-5],[1,0,0,0,5],[1,1,0,0,-5]];perimeter=orthogonalPerimeter;outlineConnect=0;targetShapes=umlLifeline;portConstraint=eastwest;newEdgeStyle={&quot;curved&quot;:0,&quot;rounded&quot;:0};" vertex="1" parent="PZywYdq4YvhuVGfifWrI-36">
          <mxGeometry x="15" y="475" width="10" height="45" as="geometry" />
        </mxCell>
        <mxCell id="PZywYdq4YvhuVGfifWrI-38" value="" style="shape=umlLifeline;perimeter=lifelinePerimeter;whiteSpace=wrap;html=1;container=1;dropTarget=0;collapsible=0;recursiveResize=0;outlineConnect=0;portConstraint=eastwest;newEdgeStyle={&quot;curved&quot;:0,&quot;rounded&quot;:0};participant=umlControl;" vertex="1" parent="1">
          <mxGeometry x="1191" y="130" width="40" height="800" as="geometry" />
        </mxCell>
        <mxCell id="PZywYdq4YvhuVGfifWrI-39" value="" style="html=1;points=[[0,0,0,0,5],[0,1,0,0,-5],[1,0,0,0,5],[1,1,0,0,-5]];perimeter=orthogonalPerimeter;outlineConnect=0;targetShapes=umlLifeline;portConstraint=eastwest;newEdgeStyle={&quot;curved&quot;:0,&quot;rounded&quot;:0};" vertex="1" parent="PZywYdq4YvhuVGfifWrI-38">
          <mxGeometry x="15" y="603" width="10" height="107" as="geometry" />
        </mxCell>
        <mxCell id="PZywYdq4YvhuVGfifWrI-44" value="" style="shape=umlLifeline;perimeter=lifelinePerimeter;whiteSpace=wrap;html=1;container=1;dropTarget=0;collapsible=0;recursiveResize=0;outlineConnect=0;portConstraint=eastwest;newEdgeStyle={&quot;curved&quot;:0,&quot;rounded&quot;:0};participant=umlEntity;" vertex="1" parent="1">
          <mxGeometry x="1373" y="130" width="40" height="800" as="geometry" />
        </mxCell>
        <mxCell id="PZywYdq4YvhuVGfifWrI-45" value="" style="html=1;points=[[0,0,0,0,5],[0,1,0,0,-5],[1,0,0,0,5],[1,1,0,0,-5]];perimeter=orthogonalPerimeter;outlineConnect=0;targetShapes=umlLifeline;portConstraint=eastwest;newEdgeStyle={&quot;curved&quot;:0,&quot;rounded&quot;:0};" vertex="1" parent="PZywYdq4YvhuVGfifWrI-44">
          <mxGeometry x="15" y="617" width="10" height="76" as="geometry" />
        </mxCell>
        <mxCell id="PZywYdq4YvhuVGfifWrI-46" value="Control&amp;nbsp;&lt;div&gt;Relevamientos&lt;/div&gt;" style="text;html=1;align=center;verticalAlign=middle;resizable=0;points=[];autosize=1;strokeColor=none;fillColor=none;" vertex="1" parent="1">
          <mxGeometry x="853" y="80" width="100" height="40" as="geometry" />
        </mxCell>
        <mxCell id="PZywYdq4YvhuVGfifWrI-47" value="Control&amp;nbsp;&lt;div&gt;Precios&lt;/div&gt;" style="text;html=1;align=center;verticalAlign=middle;resizable=0;points=[];autosize=1;strokeColor=none;fillColor=none;" vertex="1" parent="1">
          <mxGeometry x="1176" y="80" width="70" height="40" as="geometry" />
        </mxCell>
        <mxCell id="PZywYdq4YvhuVGfifWrI-48" value="Generar relevamiento" style="html=1;verticalAlign=bottom;endArrow=block;curved=0;rounded=0;" edge="1" parent="1" target="PZywYdq4YvhuVGfifWrI-37">
          <mxGeometry relative="1" as="geometry">
            <mxPoint x="303" y="610.0000000000001" as="sourcePoint" />
            <mxPoint x="853" y="610" as="targetPoint" />
          </mxGeometry>
        </mxCell>
        <mxCell id="PZywYdq4YvhuVGfifWrI-49" value="Informar id nuevo relevamiento" style="html=1;verticalAlign=bottom;endArrow=open;dashed=1;endSize=8;curved=0;rounded=0;" edge="1" parent="1">
          <mxGeometry relative="1" as="geometry">
            <mxPoint x="303" y="646.45" as="targetPoint" />
            <mxPoint x="898" y="646.4499999999998" as="sourcePoint" />
          </mxGeometry>
        </mxCell>
        <mxCell id="PZywYdq4YvhuVGfifWrI-50" value="Crear relevamiento" style="html=1;verticalAlign=bottom;endArrow=block;curved=0;rounded=0;exitX=1;exitY=0;exitDx=0;exitDy=5;exitPerimeter=0;" edge="1" parent="1" source="PZywYdq4YvhuVGfifWrI-37" target="PZywYdq4YvhuVGfifWrI-14">
          <mxGeometry relative="1" as="geometry">
            <mxPoint x="903" y="610.0000000000001" as="sourcePoint" />
            <mxPoint x="1023" y="630" as="targetPoint" />
          </mxGeometry>
        </mxCell>
        <mxCell id="PZywYdq4YvhuVGfifWrI-51" value="Confirmar nuevo relevamiento" style="html=1;verticalAlign=bottom;endArrow=open;dashed=1;endSize=8;curved=0;rounded=0;exitX=0;exitY=1;exitDx=0;exitDy=-5;exitPerimeter=0;" edge="1" parent="1" source="PZywYdq4YvhuVGfifWrI-14" target="PZywYdq4YvhuVGfifWrI-37">
          <mxGeometry relative="1" as="geometry">
            <mxPoint x="843" y="693.45" as="targetPoint" />
            <mxPoint x="1143" y="693" as="sourcePoint" />
          </mxGeometry>
        </mxCell>
        <mxCell id="PZywYdq4YvhuVGfifWrI-52" value="Relevamiento" style="text;html=1;align=center;verticalAlign=middle;resizable=0;points=[];autosize=1;strokeColor=none;fillColor=none;" vertex="1" parent="1">
          <mxGeometry x="1031" y="85" width="100" height="30" as="geometry" />
        </mxCell>
        <mxCell id="PZywYdq4YvhuVGfifWrI-53" value="&lt;div&gt;Precios&lt;/div&gt;" style="text;html=1;align=center;verticalAlign=middle;resizable=0;points=[];autosize=1;strokeColor=none;fillColor=none;" vertex="1" parent="1">
          <mxGeometry x="1363" y="85" width="60" height="30" as="geometry" />
        </mxCell>
        <mxCell id="PZywYdq4YvhuVGfifWrI-54" value="Muestra articulo y solicita precio" style="html=1;verticalAlign=bottom;endArrow=block;curved=0;rounded=0;" edge="1" parent="1">
          <mxGeometry relative="1" as="geometry">
            <mxPoint x="292.4099999999999" y="730.4100000000001" as="sourcePoint" />
            <mxPoint x="80.000909090909" y="730.4100000000001" as="targetPoint" />
          </mxGeometry>
        </mxCell>
        <mxCell id="PZywYdq4YvhuVGfifWrI-55" value="Ingresa precio del articulo" style="html=1;verticalAlign=bottom;endArrow=block;curved=0;rounded=0;" edge="1" parent="1">
          <mxGeometry relative="1" as="geometry">
            <mxPoint x="80.000909090909" y="758.4100000000001" as="sourcePoint" />
            <mxPoint x="294.41" y="758.4099999999999" as="targetPoint" />
          </mxGeometry>
        </mxCell>
        <mxCell id="PZywYdq4YvhuVGfifWrI-56" value="Agregar precio" style="html=1;verticalAlign=bottom;endArrow=block;curved=0;rounded=0;exitX=1;exitY=0;exitDx=0;exitDy=5;exitPerimeter=0;" edge="1" parent="1">
          <mxGeometry relative="1" as="geometry">
            <mxPoint x="1220" y="763" as="sourcePoint" />
            <mxPoint x="1388" y="763" as="targetPoint" />
          </mxGeometry>
        </mxCell>
        <mxCell id="PZywYdq4YvhuVGfifWrI-57" value="Confirmar nuevo precio" style="html=1;verticalAlign=bottom;endArrow=open;dashed=1;endSize=8;curved=0;rounded=0;exitX=0;exitY=1;exitDx=0;exitDy=-5;exitPerimeter=0;" edge="1" parent="1">
          <mxGeometry relative="1" as="geometry">
            <mxPoint x="1220" y="799" as="targetPoint" />
            <mxPoint x="1388" y="799" as="sourcePoint" />
          </mxGeometry>
        </mxCell>
        <mxCell id="PZywYdq4YvhuVGfifWrI-58" value="Generar relevamiento" style="html=1;verticalAlign=bottom;endArrow=block;curved=0;rounded=0;" edge="1" parent="1">
          <mxGeometry relative="1" as="geometry">
            <mxPoint x="305" y="749.19" as="sourcePoint" />
            <mxPoint x="1206" y="749.19" as="targetPoint" />
          </mxGeometry>
        </mxCell>
        <mxCell id="PZywYdq4YvhuVGfifWrI-59" value="Confirmar operacion" style="html=1;verticalAlign=bottom;endArrow=open;dashed=1;endSize=8;curved=0;rounded=0;exitX=0;exitY=1;exitDx=0;exitDy=-5;exitPerimeter=0;" edge="1" parent="1" source="PZywYdq4YvhuVGfifWrI-39" target="PZywYdq4YvhuVGfifWrI-7">
          <mxGeometry relative="1" as="geometry">
            <mxPoint x="305" y="762.6400000000001" as="targetPoint" />
            <mxPoint x="900" y="762.6399999999999" as="sourcePoint" />
          </mxGeometry>
        </mxCell>
        <mxCell id="PZywYdq4YvhuVGfifWrI-60" value="Confirmar la carga del relevamiento" style="html=1;verticalAlign=bottom;endArrow=open;dashed=1;endSize=8;curved=0;rounded=0;" edge="1" parent="1">
          <mxGeometry relative="1" as="geometry">
            <mxPoint x="80.32352941176464" y="900" as="targetPoint" />
            <mxPoint x="290" y="900" as="sourcePoint" />
          </mxGeometry>
        </mxCell>
      </root>
    </mxGraphModel>
  </diagram>
</mxfile>
